# WaveFront *.obj file (generated by Autodesk ATF)

mtllib 2663d207-64ac-4c0a-b08b-6ece61989f3d.mtl

g Body1

v 17.000000 -101.207172 -0.000000
v 17.000000 -101.207172 9.508500
v -6.000000 -101.207172 9.508500
v -6.000000 -101.207172 -0.000000
v 17.000000 -115.999996 9.508500
v -6.000000 -115.999996 9.508500
v -6.000000 0.000002 -0.000000
v 7.000000 0.000002 -0.000000
v 7.000000 -72.784306 -0.000000
v 17.000000 -72.784306 -0.000000
v -6.000000 -115.999996 11.000000
v -6.000000 0.000002 11.000000
v 17.000000 -115.999996 11.000000
v 7.000000 -72.784306 11.000000
v 17.000000 -72.784306 11.000000
v 7.000000 0.000002 11.000000
vt 0.475000 1.149999 0.000000
vt -0.475850 1.149999 0.000000
vt 0.475000 -1.150001 0.000000
vt -0.475850 -1.150001 0.000000
vt -1.149999 0.199019 0.000000
vt 1.150001 0.199019 0.000000
vt -1.149999 1.678302 0.000000
vt 1.150001 1.678302 0.000000
vt -1.650000 -3.525489 0.000000
vt -1.650000 -6.367776 0.000000
vt -0.650000 -3.525489 0.000000
vt 0.650000 -6.367776 0.000000
vt 0.650000 3.752941 0.000000
vt -0.650000 3.752941 0.000000
vt -0.550000 -6.367776 0.000000
vt 0.400850 -6.367776 0.000000
vt -0.550000 3.752941 0.000000
vt 0.550000 3.752941 0.000000
vt 0.550000 -7.847058 0.000000
vt 0.400850 -7.847058 0.000000
vt -0.400850 1.150000 0.000000
vt -0.550000 1.150000 0.000000
vt -0.400850 -1.150000 0.000000
vt -0.550000 -1.150000 0.000000
vt -0.550000 0.150000 0.000000
vt 0.550000 0.150000 0.000000
vt -0.550000 1.150000 0.000000
vt 0.550000 1.150000 0.000000
vt 0.550000 -0.681502 0.000000
vt 0.550000 2.160784 0.000000
vt -0.400850 -0.681502 0.000000
vt -0.550000 2.160784 0.000000
vt -0.550000 -2.160784 0.000000
vt -0.400850 -2.160784 0.000000
vt 0.650000 3.752941 0.000000
vt -0.650000 3.752941 0.000000
vt 0.650000 -3.525489 0.000000
vt -0.650000 -7.847058 0.000000
vt 1.650000 -7.847058 0.000000
vt 1.650000 -3.525489 0.000000
vt -0.550000 -3.525489 0.000000
vt 0.550000 -3.525489 0.000000
vt -0.550000 3.752941 0.000000
vt 0.550000 3.752941 0.000000
vt 0.550000 0.650000 0.000000
vt -0.550000 0.650000 0.000000
vt 0.550000 -0.650000 0.000000
vt -0.550000 -0.650000 0.000000
vn 0.000000 -0.100000 0.000000
vn 0.000000 -0.100000 0.000000
vn 0.000000 -0.100000 0.000000
vn 0.000000 -0.100000 0.000000
vn 0.000000 -0.000000 -0.100000
vn 0.000000 -0.000000 -0.100000
vn 0.000000 -0.000000 -0.100000
vn 0.000000 -0.000000 -0.100000
vn 0.000000 -0.000000 -0.100000
vn 0.000000 -0.000000 -0.100000
vn 0.000000 -0.000000 -0.100000
vn 0.000000 -0.000000 -0.100000
vn 0.000000 -0.000000 -0.100000
vn 0.000000 -0.000000 -0.100000
vn -0.100000 0.000000 0.000000
vn -0.100000 0.000000 0.000000
vn -0.100000 0.000000 0.000000
vn -0.100000 0.000000 0.000000
vn -0.100000 0.000000 0.000000
vn -0.100000 0.000000 0.000000
vn 0.000000 -0.100000 0.000000
vn 0.000000 -0.100000 0.000000
vn 0.000000 -0.100000 0.000000
vn 0.000000 -0.100000 0.000000
vn -0.000000 0.100000 -0.000000
vn -0.000000 0.100000 -0.000000
vn -0.000000 0.100000 -0.000000
vn -0.000000 0.100000 -0.000000
vn 0.100000 0.000000 0.000000
vn 0.100000 0.000000 0.000000
vn 0.100000 0.000000 0.000000
vn 0.100000 0.000000 0.000000
vn 0.100000 0.000000 0.000000
vn 0.100000 0.000000 0.000000
vn 0.000000 0.000000 0.100000
vn 0.000000 0.000000 0.100000
vn 0.000000 0.000000 0.100000
vn 0.000000 0.000000 0.100000
vn 0.000000 0.000000 0.100000
vn 0.000000 0.000000 0.100000
vn 0.100000 0.000000 0.000000
vn 0.100000 0.000000 0.000000
vn 0.100000 0.000000 0.000000
vn 0.100000 0.000000 0.000000
vn -0.000000 0.100000 -0.000000
vn -0.000000 0.100000 -0.000000
vn -0.000000 0.100000 -0.000000
vn -0.000000 0.100000 -0.000000
usemtl Paint_-_Enamel_Glossy_(White)
f 1/1/1 2/2/2 4/3/3
f 4/3/3 2/2/2 3/4/4
f 5/5/5 6/6/6 2/7/7
f 2/7/7 6/6/6 3/8/8
f 10/9/9 1/10/10 9/11/11
f 9/11/11 1/10/10 4/12/12
f 9/11/11 4/12/12 7/13/13
f 7/13/13 8/14/14 9/11/11
f 4/15/15 3/16/16 7/17/17
f 7/17/17 3/16/16 12/18/18
f 12/18/18 3/16/16 11/19/19
f 11/19/19 3/16/16 6/20/20
f 5/21/21 13/22/22 6/23/23
f 6/23/23 13/22/22 11/24/24
f 9/25/25 14/26/26 10/27/27
f 10/27/27 14/26/26 15/28/28
f 1/29/29 10/30/30 2/31/31
f 2/31/31 10/30/30 15/32/32
f 2/31/31 15/32/32 13/33/33
f 13/33/33 5/34/34 2/31/31
f 16/35/35 12/36/36 14/37/37
f 14/37/37 12/36/36 11/38/38
f 14/37/37 11/38/38 13/39/39
f 13/39/39 15/40/40 14/37/37
f 14/41/41 9/42/42 16/43/43
f 16/43/43 9/42/42 8/44/44
f 16/45/45 8/46/46 12/47/47
f 12/47/47 8/46/46 7/48/48

# 16 vertices
# 48 texture params
# 48 normals
# 28 facets

# 1 groups
